<svg width="25" height="25" viewBox="0 0 25 25" fill="none" xmlns="http://www.w3.org/2000/svg">
<path d="M12.6731 2.8418C7.1591 2.8418 2.6731 7.3278 2.6731 12.8418C2.6731 18.3558 7.1591 22.8418 12.6731 22.8418C18.1871 22.8418 22.6731 18.3558 22.6731 12.8418C22.6731 7.3278 18.1871 2.8418 12.6731 2.8418ZM4.6731 12.8418C4.6731 11.9428 4.8291 11.0798 5.1041 10.2728L6.6731 11.8418L8.6731 13.8418V15.8418L10.6731 17.8418L11.6731 18.8418V20.7728C7.7341 20.2778 4.6731 16.9138 4.6731 12.8418ZM19.0031 17.7148C18.3501 17.1888 17.3601 16.8418 16.6731 16.8418V15.8418C16.6731 15.3114 16.4624 14.8027 16.0873 14.4276C15.7122 14.0525 15.2035 13.8418 14.6731 13.8418H10.6731V10.8418C11.2035 10.8418 11.7122 10.6311 12.0873 10.256C12.4624 9.88094 12.6731 9.37223 12.6731 8.8418V7.8418H13.6731C14.2035 7.8418 14.7122 7.63108 15.0873 7.25601C15.4624 6.88094 15.6731 6.37223 15.6731 5.8418V5.4308C18.6011 6.6198 20.6731 9.4918 20.6731 12.8418C20.6729 14.6065 20.0854 16.3209 19.0031 17.7148V17.7148Z" fill="#67E8F9"/>
</svg>
